inDegrees=no
num_controls=7
num_derivatives=13
num_iterations=188
num_multipliers=7
num_parameters=0
num_slacks=7
num_states=26
objective=6.409352
objective_accelerations=0.602371
objective_balance=0.053040
objective_effort=0.515940
objective_height=5.118634
objective_ligament=0.119366
solver_duration=1674.492066
status=Solve_Succeeded
success=true
DataType=double
version=3
OpenSimVersion=4.4-2022-07-23-0e9fedc
endheader
time	/jointset/ground_pelvis/pelvis_tilt/value	/jointset/ground_pelvis/pelvis_tx/value	/jointset/ground_pelvis/pelvis_ty/value	/jointset/hip_r/hip_flexion_r/value	/jointset/hip_r/hip_adduction_r/value	/jointset/hip_r/hip_rotation_r/value	/jointset/back/lumbar_extension/value	/jointset/patellofemoral_r/patellar_flexion_r/value	/jointset/knee_r/knee_flexion_r/value	/jointset/knee_r/knee_adduction_r/value	/jointset/knee_r/knee_rotation_r/value	/jointset/ankle_r/ankle_angle_r/value	/jointset/subtalar_r/subtalar_angle_r/value	/jointset/ground_pelvis/pelvis_tilt/speed	/jointset/ground_pelvis/pelvis_tx/speed	/jointset/ground_pelvis/pelvis_ty/speed	/jointset/hip_r/hip_flexion_r/speed	/jointset/hip_r/hip_adduction_r/speed	/jointset/hip_r/hip_rotation_r/speed	/jointset/back/lumbar_extension/speed	/jointset/patellofemoral_r/patellar_flexion_r/speed	/jointset/knee_r/knee_flexion_r/speed	/jointset/knee_r/knee_adduction_r/speed	/jointset/knee_r/knee_rotation_r/speed	/jointset/ankle_r/ankle_angle_r/speed	/jointset/subtalar_r/subtalar_angle_r/speed	/forceset/tau_hip_flexion_r	/forceset/tau_hip_adduction_r	/forceset/tau_hip_rotation_r	/forceset/tau_knee_flexion_r	/forceset/tau_ankle_angle_r	/forceset/tau_subtalar_angle_r	/forceset/tau_lumbar_extension	lambda_cid13_p0	lambda_cid14_p0	lambda_cid14_p1	lambda_cid14_p2	lambda_cid14_p3	lambda_cid14_p4	lambda_cid14_p5	/jointset/ground_pelvis/pelvis_tilt/accel	/jointset/ground_pelvis/pelvis_tx/accel	/jointset/ground_pelvis/pelvis_ty/accel	/jointset/hip_r/hip_flexion_r/accel	/jointset/hip_r/hip_adduction_r/accel	/jointset/hip_r/hip_rotation_r/accel	/jointset/back/lumbar_extension/accel	/jointset/patellofemoral_r/patellar_flexion_r/accel	/jointset/knee_r/knee_flexion_r/accel	/jointset/knee_r/knee_adduction_r/accel	/jointset/knee_r/knee_rotation_r/accel	/jointset/ankle_r/ankle_angle_r/accel	/jointset/subtalar_r/subtalar_angle_r/accel	gamma_cid13_p0	gamma_cid14_p0	gamma_cid14_p1	gamma_cid14_p2	gamma_cid14_p3	gamma_cid14_p4	gamma_cid14_p5
0.5	-0.1630189056511917	0.02711189061029716	0.8304830503970705	0.8692399639808045	-0.2433707680816886	-0.09058384257708957	-0.3279299970376616	0.8084155626420315	0.8084155626419752	0.06257229193456461	0.1745322209076552	0.2727130150677706	0.04059848540927803	-0.4297192048769173	-0.1423352209788555	-0.4626450958688277	1.893618614999369	-0.02884691752692145	0.4093807428525744	-0.5971576800743601	1.986880302318746	1.986880302318743	-0.1728139075953031	-5.256711229265469e-05	0.6126701994706301	0.1216302006055357	-0.1175078273389558	-0.02102187133463967	0.01429951597649637	-0.3520116331029875	0.07081223665977408	-0.007319554852547139	0.1628807438263401	-24.85093606531143	-18.78505145447131	-2.648745017436349	-3.48026755757512	2.097486983648031	-661.4148759012014	61.04400606615455	0.257647941084661	0.4141307305048126	-0.4730291271890489	-1.089681249651477	0.08414510147663846	-0.2686518616295085	1.51976296468927	-1.364116878504221	-1.36411687850422	0.6158052095098626	-0.03226333084483517	-0.6397465001580741	0.01253502993435028	-1.490989056078139e-07	-1.002261547376619e-07	1.429640168217055e-06	-7.678608602548187e-07	-9.803330851615392e-08	-1.852586928875412e-07	9.944027145206079e-07
0.51	-0.1673024161533288	0.02570943132919761	0.8258340075913052	0.8881186840182816	-0.2436556609249625	-0.08650419696440018	-0.3338250273423328	0.8282132192922151	0.8282132192921974	0.06087599798565801	0.1745314228251268	0.2788065963484138	0.04181428130859551	-0.4269223417536733	-0.1381409510115759	-0.4670570507569372	1.881866244976422	-0.02812563728996118	0.4065285339426219	-0.5817750174327034	1.972371402607341	1.972371402607339	-0.1664454795189144	-0.000106884667785258	0.6059602532413056	0.1215147953555517	-0.1240778444086152	-0.01948870624444215	0.01478450033595168	-0.3556923341241643	0.06724914200388059	-0.006332596560274727	0.1687466196892328	-23.59906750219518	-20.13207090968761	-2.557197570743619	-3.379227657911807	2.588212615734198	-665.9864676942601	61.2229789656505	0.2997785125041914	0.4244081913346032	-0.4093513978259326	-1.256899200034006	0.06701432972117352	-0.2966832647748522	1.558522427997497	-1.536191441035498	-1.536191441035254	0.6474472958938126	0.00789060311150824	-0.6995213050830321	-0.02557427496612472	-1.393441408042286e-07	-9.115774657003722e-08	1.351842507377426e-06	-7.116264438715827e-07	-9.694609244636973e-08	-1.670913894885653e-07	9.363586572503339e-07
0.52	-0.1715561434213207	0.02434938136006996	0.8211440306910177	0.9068721034912457	-0.2439331619968823	-0.08245370901263216	-0.3395640301177686	0.8478574039605654	0.8478574039605906	0.05924340545534535	0.1745300628812553	0.2848304976426112	0.0430285239609129	-0.4237625580480336	-0.1338533585844767	-0.4708319147732303	1.868558502096769	-0.02736856325638022	0.4035492106687975	-0.5659521742273051	1.956185905952864	1.956185905952864	-0.1600736238749059	-0.0001649393827572051	0.5987342021814444	0.1213195512055119	-0.1306478614782806	-0.01795554115425506	0.01526948469548318	-0.3593730351453459	0.06368604734798262	-0.005345638268019298	0.1746124955521225	-22.33979504266319	-21.4848883363762	-2.462260345323713	-3.283759962711107	3.076116890888486	-670.6545195250822	61.46361662276686	0.3302320575638221	0.4327952224687041	-0.3456109528257629	-1.400755820992803	0.09130386080076378	-0.2940747344039479	1.607799077437635	-1.699436267118376	-1.699436267118376	0.6164907230337987	-0.03301076274063475	-0.7429674662654512	-0.003432750076823031	-1.295034925506745e-07	-8.255309060256237e-08	1.275566235951102e-06	-6.548864401985145e-07	-9.50905146937491e-08	-1.520492576628626e-07	8.800215244417934e-07
0.53	-0.175776529374207	0.02303262253981616	0.8164195248961634	0.9254848512968352	-0.2442028545868887	-0.07843361015118278	-0.345142713117985	0.867331523090773	0.867331523090763	0.05767437488431813	0.1745280132884058	0.290779661213012	0.04424050167484744	-0.4202580912616541	-0.1294872505484841	-0.4739589997420199	1.853741810599317	-0.02656485272452237	0.4004510455603047	-0.5497240982320135	1.938371243303366	1.938371243303369	-0.1537352790733725	-0.000245203853728591	0.5910199934275695	0.1210618670203419	-0.1370649811480235	-0.01653132503396726	0.01573449743076324	-0.3632027515728401	0.06033738640865786	-0.004489595886725416	0.1803381659497629	-21.07684692638865	-22.77881977053318	-2.421654271652399	-3.17073798389342	3.554263647222199	-675.3693704754418	61.63760324729931	0.3690264646556722	0.4401730086336274	-0.2797494302377022	-1.559523435376395	0.07566380838363526	-0.3207905853790222	1.639360998187813	-1.862457914658435	-1.86245791465798	0.6422462213922333	0.004335889105951314	-0.797454228944526	-0.03893414040015141	-1.200769324993785e-07	-7.553353751908607e-08	1.197885105165912e-06	-6.041781618850344e-07	-9.135545999241514e-08	-1.404560145595009e-07	8.240669948176726e-07
0.54	-0.1799601761641323	0.02175985568281619	0.8116670498193548	0.9439419526631994	-0.2444643582397739	-0.07444511357808241	-0.3505573055307258	0.8866195002643226	0.8866195002642826	0.05616867573383454	0.1745251350865258	0.2966493213660749	0.0454495029693977	-0.4164147254560497	-0.1250549659337111	-0.4764257711641168	1.837429214251666	-0.02573077583244857	0.3972287529995264	-0.5331340567322103	1.918957514622152	1.918957514622158	-0.1474073397646719	-0.0003306611894458655	0.582833518713853	0.1207242673286478	-0.1434821008177737	-0.0151071089136886	0.01619951016613942	-0.3670324680003391	0.05698872546932917	-0.003633553505447287	0.1860638363473986	-19.81569876916512	-24.07848203414292	-2.378016037696975	-3.062809177879335	4.029669068242803	-680.1783004087069	61.8680325305548	0.3980118614088387	0.4460305382247722	-0.213548243487215	-1.699936791032595	0.09737713284394538	-0.3189002248611222	1.680192178339993	-2.019249473461531	-2.019249473461529	0.6144096244672471	-0.03404933568975085	-0.8374206582337989	-0.01941585138166212	-1.11108512586751e-07	-7.026771528599117e-08	1.118649661898573e-06	-5.601432818417368e-07	-8.554098398612172e-08	-1.326785632340482e-07	7.68535770844399e-07
0.55	-0.1841037413825155	0.02053169875384568	0.8068932438333082	0.9622285641951058	-0.2447173073850105	-0.07048947922231702	-0.3558043411105932	0.9057054727570718	0.9057054727570643	0.05472600792878061	0.174521304345948	0.3024348526509067	0.04665482118114985	-0.4122464742000228	-0.1205690678280563	-0.4782221459264163	1.819652655675858	-0.02485432183796739	0.3938703789305763	-0.5162261162341302	1.897982106151113	1.897982106151118	-0.1411375337457019	-0.0004318707023257787	0.57420212560059	0.1203263649862478	-0.1496881958377742	-0.01390078695781829	0.01664548051949734	-0.3710707204833761	0.0539235513738273	-0.002837653056764949	0.191599958473519	-18.56356135776421	-25.29157307321512	-2.345807383884959	-2.952523557032412	4.470017920831916	-684.9954939174763	62.12005312015263	0.4340009137248317	0.4509557776625989	-0.1457157620496303	-1.852589811757385	0.0834813420086475	-0.3486199671037205	1.703136436634688	-2.174896957048568	-2.174896957048705	0.6317083347083822	0.002305799224123657	-0.8866162355784336	-0.05182283326533055	-1.009839497852005e-07	-6.203161155235641e-08	1.0451742165123e-06	-4.999379019689551e-07	-8.264651360521892e-08	-1.213337553188144e-07	7.159959235798455e-07
0.5600000000000001	-0.1882040702571324	0.01934861807211714	0.8021048673657487	0.9803301952570738	-0.2449613516284495	-0.06656829140108131	-0.3608808889952613	0.9245740490804834	0.9245740490805116	0.05334572663273386	0.1745165540219019	0.3081319464850646	0.04785579128795883	-0.4077674567029901	-0.1160397164853155	-0.4793398674666701	1.80043312026395	-0.02394979547314785	0.3903394460939549	-0.4990365176923477	1.875478280755134	1.875478280755138	-0.1349300379628702	-0.0005145778827560998	0.5651460285790914	0.1198546463400003	-0.1558942908577819	-0.01269446500195177	0.0170914508728987	-0.375108972966416	0.05085837727832368	-0.00204175260808958	0.1971360805996338	-17.32345141930768	-26.50905680597246	-2.310504156232739	-2.847144691357658	4.902571034856253	-689.8878452274677	62.4221535091977	0.4601651096100029	0.4547211856419577	-0.07781759907812227	-1.988532158252571	0.1029916069116091	-0.3534119783954193	1.73652378708047	-2.324932858449437	-2.324932858449437	0.6019475772395941	-0.03034886919978744	-0.9223614398809509	-0.03417911215117421	-8.947201551694244e-08	-5.02311700180739e-08	9.786107685833034e-07	-4.203279223007932e-07	-8.325604997478477e-08	-1.057081194958435e-07	6.670457283657559e-07
